<svg width="18" height="18" viewBox="0 0 18 18" fill="none" xmlns="http://www.w3.org/2000/svg">
<path d="M7.49975 17.2494C7.49975 17.4483 7.42073 17.6391 7.28008 17.7797C7.13944 17.9204 6.94868 17.9994 6.74977 17.9994H0.749975C0.551069 17.9994 0.36031 17.9204 0.219663 17.7797C0.0790151 17.6391 0 17.4483 0 17.2494V0.749975C0 0.551069 0.0790151 0.36031 0.219663 0.219663C0.36031 0.0790151 0.551069 0 0.749975 0H6.74977C6.94868 0 7.13944 0.0790151 7.28008 0.219663C7.42073 0.36031 7.49975 0.551069 7.49975 0.749975C7.49975 0.94888 7.42073 1.13964 7.28008 1.28029C7.13944 1.42093 6.94868 1.49995 6.74977 1.49995H1.49995V16.4994H6.74977C6.94868 16.4994 7.13944 16.5785 7.28008 16.7191C7.42073 16.8597 7.49975 17.0505 7.49975 17.2494ZM17.78 8.46909L14.0301 4.71921C13.8894 4.57849 13.6986 4.49943 13.4995 4.49943C13.3005 4.49943 13.1097 4.57849 12.9689 4.71921C12.8282 4.85994 12.7491 5.05081 12.7491 5.24982C12.7491 5.44884 12.8282 5.6397 12.9689 5.78043L15.4392 8.24972H6.74977C6.55087 8.24972 6.36011 8.32874 6.21946 8.46938C6.07881 8.61003 5.9998 8.80079 5.9998 8.99969C5.9998 9.1986 6.07881 9.38936 6.21946 9.53001C6.36011 9.67066 6.55087 9.74967 6.74977 9.74967H15.4392L12.9689 12.219C12.8282 12.3597 12.7491 12.5506 12.7491 12.7496C12.7491 12.9486 12.8282 13.1394 12.9689 13.2802C13.1097 13.4209 13.3005 13.5 13.4995 13.5C13.6986 13.5 13.8894 13.4209 14.0301 13.2802L17.78 9.5303C17.8498 9.46065 17.9051 9.37794 17.9428 9.28689C17.9806 9.19584 18 9.09825 18 8.99969C18 8.90114 17.9806 8.80354 17.9428 8.7125C17.9051 8.62145 17.8498 8.53874 17.78 8.46909Z" fill="black"/>
</svg>
